# xmcd
#
# Track frame offsets:
#	150
#	13135
#	25528
#	39052
#	51785
#	65168
#	78225
#	91737
#	105172
#	116763
#	129000
#	141166
#	153597
#	163474
#	172937
#	184195
#	196601
#	208463
#	218182
#	227988
#	240053
#	251106
#	260450
#	268841
#	277253
#	289818
#	302722
#
# Disc length: 4212 seconds
#
# Revision: 0
# Processed by: cddbd v1.5.2PL0 Copyright (c) Steve Scherf et al.
# Submitted via: EasyCDDAExtractor 15.3.0.1
#
DISCID=7e10721b
DTITLE=Jack Rivers - Navy Hot Rod - Jack Rivers Vol. 2
DYEAR=1900
DGENRE=Country
TTITLE0=Jack Rivers and his Muddy Creek Cowboys - At Least A Million Tears
TTITLE1=Jack Rivers and his Muddy Creek Cowboys - Detour
TTITLE2=Jack Rivers and his Muddy Creek Cowboys - I Found Somebody New
TTITLE3=Jack Rivers and his Muddy Creek Cowboys - Sargent's Stomp
TTITLE4=Jack Rivers and his Texas Tornadoes - Blue Blue Eyes
TTITLE5=Jack Rivers and his Texas Tornadoes - Playing Games With Me
TTITLE6=Jack Rivers - Year Of City Living
TTITLE7=Jack Rivers - Lorelei
TTITLE8=Jack Rivers - Wild Guitar
TTITLE9=Jack Rivers - Jelly Bean Rag
TTITLE10=Jack Rivers - Shame Shame On Jolie Blon
TTITLE11=Jack Rivers - Summer Or Winter
TTITLE12=Jack Rivers and Neil LeVang - Rosetta
TTITLE13=Jack Rivers - Navy Hot Rod
TTITLE14=Jack Rivers - One Woman Man
TTITLE15=Bill Osborne - Osborne Boogie
TTITLE16=Fiddlin' Jim Lewis An' Sons Texas Jim and Jack Rivers - Get On The Ha
TTITLE16=ppy Side Of Living
TTITLE17=Fiddlin' Jim Lewis An' Sons Texas Jim and Jack Rivers - Were You Ther
TTITLE17=e
TTITLE18=Jack Rivers - Sweet Sue
TTITLE19=Jack Rivers and Janie Tucker - If You Could Only Be Mine
TTITLE20=Jack Rivers and Janie Tucker - My Dreams Are Getting Better All The Tim
TTITLE20=e
TTITLE21=Jack Rivers - Galloping Guitar
TTITLE22=Jack Rivers - My Baby Don't Love
TTITLE23=Jack Rivers - Slowly I'm Walking The Dog
TTITLE24=Tex Russell and His Hollywood Cowboys - You Can't Break The Chains Of L
TTITLE24=ove
TTITLE25=Tex Russell and His Hollywood Cowboys - Moon Over Montana
TTITLE26=Tex Russell and His Hollywood Cowboys - What It Means To Be Blue
EXTD=
EXTT0=
EXTT1=
EXTT2=
EXTT3=
EXTT4=
EXTT5=
EXTT6=
EXTT7=
EXTT8=
EXTT9=
EXTT10=
EXTT11=
EXTT12=
EXTT13=
EXTT14=
EXTT15=
EXTT16=
EXTT17=
EXTT18=
EXTT19=
EXTT20=
EXTT21=
EXTT22=
EXTT23=
EXTT24=
EXTT25=
EXTT26=
PLAYORDER=
